HIERARCHY
ROOT Hips
{
  OFFSET -213.699 104.721 0.752556
  CHANNELS 6 Xposition Yposition Zposition Zrotation Xrotation Yrotation
  JOINT RightUpLeg
  {
    OFFSET -8.9458 -8.66707 0.101652
    CHANNELS 3 Zrotation Xrotation Yrotation
    JOINT RightLeg
    {
      OFFSET 0 -44.4227 1.3727
      CHANNELS 3 Zrotation Xrotation Yrotation
      JOINT RightFoot
      {
        OFFSET 0.253549 -42.0924 -1.46059
        CHANNELS 3 Zrotation Xrotation Yrotation
        JOINT RightToes
        {
          OFFSET 0.04 -4.41509 8.4991
          CHANNELS 3 Zrotation Xrotation Yrotation
          End Site
          {
            OFFSET -0.08 -0.137448 9.77979
          }
        }
      }
    }
  }
  JOINT Spine
  {
    OFFSET 0 11.8905 0
    CHANNELS 3 Zrotation Xrotation Yrotation
    JOINT Spine1
    {
      OFFSET 0 25.6574 0.127663
      CHANNELS 3 Zrotation Xrotation Yrotation
      JOINT HEad
      {
        OFFSET 0 8.73416 0.011341
        CHANNELS 3 Zrotation Xrotation Yrotation
        End Site
        {
          OFFSET -0.29 12.7742 2.51395
        }
      }
      JOINT LeftShoulder1
      {
        OFFSET 8.99 -0.362252 -0.22
        CHANNELS 3 Zrotation Xrotation Yrotation
        JOINT LeftArm
        {
          OFFSET 10.2827 -0.00337999 0.322123
          CHANNELS 3 Zrotation Xrotation Yrotation
          JOINT LeftForeArm
          {
            OFFSET 26.2597 0.099144 -1.42434
            CHANNELS 3 Zrotation Xrotation Yrotation
            JOINT LeftHand
            {
              OFFSET 22.0902 0.085362 1.02216
              CHANNELS 3 Zrotation Xrotation Yrotation
              End Site
              {
                OFFSET 13.419 -0.6 1.50291
              }
            }
          }
        }
      }
      JOINT RightShoulder
      {
        OFFSET -8.99 -0.362252 -0.22
        CHANNELS 3 Zrotation Xrotation Yrotation
        JOINT RightArm
        {
          OFFSET -10.2827 -0.00338 0.322123
          CHANNELS 3 Zrotation Xrotation Yrotation
          JOINT RightForeArm
          {
            OFFSET -26.364 0.099144 -1.42434
            CHANNELS 3 Zrotation Xrotation Yrotation
            JOINT RightHand
            {
              OFFSET -22.0324 0.085362 1.02216
              CHANNELS 3 Zrotation Xrotation Yrotation
              End Site
              {
                OFFSET -13.3284 -0.6 1.50291
              }
            }
          }
        }
      }
    }
  }
  JOINT LeftUpLeg
  {
    OFFSET 8.9458 -8.66707 0.101652
    CHANNELS 3 Zrotation Xrotation Yrotation
    JOINT LeftLeg
    {
      OFFSET 0 -44.4227 1.3727
      CHANNELS 3 Zrotation Xrotation Yrotation
      JOINT LeftFoot
      {
        OFFSET -0.253549 -42.0924 -1.46059
        CHANNELS 3 Zrotation Xrotation Yrotation
        JOINT LeftToes
        {
          OFFSET -0.04 -4.41509 8.4991
          CHANNELS 3 Zrotation Xrotation Yrotation
          End Site
          {
            OFFSET 0.08 -0.047448 9.77979
          }
        }
      }
    }
  }
}
MOTION
Frames:	19
Frame Time:	0.0333333
-222.992 104.664 -5.42557 1.65654 0.110172 89.9958 0.418309 3.14609 -1.73666 -1.05185 8.94862 -14.8993 -1.84591 -5.69574 -0.123868 0.0462048 0.000530889 0.662642 -3.82169 -0.715866 -1.04124 0.894771 7.04101 -1.16877 2.63329 0.333218 -5.22886 -5.04247 0.0495183 3.11979 -30.6157 -74.791 -38.6942 -0.0869046 62.0406 6.64305 0.350643 9.96265 -9.35179 8.38136 0.19099 -3.66847 0.182802 -43.3073 -0.190902 -1.24726 23.4416 5.57643 -2.13071 9.81702 2.1301 -2.03601 0.472897 0.894419 1.57701 9.06038 15.85 2.26732 -5.68048 -0.0280923 -1.31386e-009 8.75249e-006 -1.47851e-008 
-223.022 104.676 -5.42987 1.5842 0.11819 90.0497 0.394785 3.09718 -1.75936 -1.00902 8.85844 -14.9291 -1.8705 -5.63407 -0.123855 0.0462048 0.000530889 0.662642 -3.83912 -0.654945 -1.02373 0.937423 6.91551 -1.1612 2.63128 0.237109 -5.4151 -5.06126 0.0567421 3.06441 -30.9715 -74.762 -39.0647 -0.0643745 61.9698 6.6274 0.309029 9.96727 -9.23387 8.47084 0.171637 -3.78909 0.180754 -43.4376 -0.107993 -1.33085 23.7893 5.43193 -2.05938 9.81521 2.40311 -2.03808 0.410945 0.880565 1.5749 8.97799 15.8043 2.27087 -5.61225 -0.028089 -1.31386e-009 8.75249e-006 -1.47851e-008 
-223.076 104.692 -5.44005 1.48724 0.12459 90.1416 0.370599 3.01484 -1.76746 -0.982576 8.75178 -15.0052 -1.87888 -5.54304 -0.123836 0.0462048 0.000530889 0.662642 -3.8481 -0.612664 -1.01888 1.01685 6.82923 -1.17441 2.63938 0.0765074 -5.63899 -5.16431 0.0647876 3.00564 -31.8688 -74.846 -40.0073 0.159377 62.1603 6.52502 0.259397 9.97327 -9.23991 8.49964 0.174503 -3.77057 0.181474 -43.3699 -0.210269 -1.31869 23.54 5.35557 -2.03536 9.81389 2.49562 -2.04952 0.331095 0.85642 1.56768 8.83535 15.7389 2.28838 -5.49818 -0.0280835 -1.31386e-009 8.75249e-006 -1.47851e-008 
-223.142 104.702 -5.45825 1.41465 0.153582 90.1676 0.348255 2.88905 -1.74457 -1.01386 8.7593 -15.0471 -1.85566 -5.49648 -0.123826 0.0462048 0.000530889 0.662642 -3.81403 -0.577902 -1.01027 1.06135 6.80954 -1.1758 2.71555 -0.0901399 -5.67908 -5.26391 0.0741537 2.93745 -32.5448 -74.9925 -40.6665 0.4173 62.5764 6.41768 0.292198 9.9702 -9.43059 8.46753 0.20763 -3.56361 0.132594 -43.1285 -0.514721 -1.21627 22.9065 5.37936 -2.06118 9.81505 2.3005 -2.08795 0.255697 0.817429 1.56133 8.72896 15.753 2.3194 -5.39918 -0.0287805 -1.31386e-009 8.75249e-006 -1.47851e-008 
-223.214 104.705 -5.48143 1.37792 0.19914 90.0975 0.300451 2.72952 -1.73417 -1.05914 8.89275 -14.974 -1.84266 -5.50882 -0.123828 0.0462048 0.000530889 0.662642 -3.73814 -0.48053 -0.970204 1.02353 6.79115 -1.12803 2.85768 -0.303056 -5.53958 -5.28696 0.0841341 2.86225 -32.2129 -74.9238 -40.2689 0.281154 62.5584 6.48623 0.478089 9.94605 -9.28926 8.54499 0.224976 -3.45497 0.109033 -43.1743 -0.592879 -1.26581 23.2196 5.25383 -2.01922 9.82005 2.3052 -2.15056 0.192858 0.773521 1.55046 8.68743 15.8659 2.35414 -5.33337 -0.03124 -1.31386e-009 8.75249e-006 -1.47851e-008 
-223.275 104.708 -5.49884 1.39114 0.241348 89.9871 0.234158 2.60658 -1.75803 -1.08236 9.0695 -14.8291 -1.8456 -5.54524 -0.123836 0.0462048 0.000530889 0.662642 -3.65831 -0.34978 -0.93094 0.944853 6.8263 -1.07341 2.97587 -0.551748 -5.31243 -5.29679 0.0830119 2.87121 -31.2579 -74.5844 -39.3273 -0.251922 61.8888 6.71753 0.737829 9.91151 -8.61593 8.74955 0.206385 -3.57007 0.2419 -43.5506 -0.23517 -1.45857 24.4349 4.97541 -1.90923 9.82326 2.63224 -2.20728 0.176016 0.752038 1.52526 8.68442 15.9932 2.37642 -5.29867 -0.0328805 -1.31386e-009 8.75249e-006 -1.47851e-008 
-223.311 104.709 -5.50401 1.44479 0.279234 89.91 0.185327 2.56383 -1.78436 -1.10198 9.20927 -14.7247 -1.81486 -5.57238 -0.123842 0.0462048 0.000530889 0.662642 -3.62823 -0.243368 -0.932872 0.928939 6.92907 -1.07521 2.96787 -0.702157 -5.1194 -5.36032 0.0657009 3.00516 -30.861 -74.3211 -39.0256 -0.614807 61.3235 6.8661 0.859688 9.89588 -8.13195 8.9316 0.182388 -3.7163 0.442947 -43.7229 0.197367 -1.48304 24.9949 4.87747 -1.8704 9.82325 2.78619 -2.24306 0.214417 0.753961 1.49629 8.68415 16.069 2.38914 -5.28378 -0.0340641 -1.31386e-009 8.75249e-006 -1.47851e-008 
-223.325 104.711 -5.50366 1.49462 0.3153 89.88 0.155957 2.56441 -1.79508 -1.13243 9.29029 -14.683 -1.74082 -5.5893 -0.123845 0.0462048 0.000530889 0.662642 -3.66093 -0.149531 -0.956343 1.00038 6.9841 -1.11794 2.81469 -0.682461 -5.09606 -5.40715 0.0460624 3.1553 -31.4687 -74.3942 -39.6268 -0.447625 61.5121 6.7935 0.756612 9.90905 -8.46136 9.0594 0.178602 -3.7378 0.483363 -43.4541 0.34498 -1.23416 24.3268 5.09493 -1.95731 9.8198 2.48316 -2.279 0.274511 0.746066 1.4862 8.6549 16.1191 2.41029 -5.26512 -0.0351491 -1.31386e-009 8.75249e-006 -1.47851e-008 
-223.333 104.712 -5.50061 1.50548 0.353703 89.8624 0.114641 2.55019 -1.81793 -1.14409 9.33178 -14.6373 -1.69203 -5.60747 -0.123849 0.0462048 0.000530889 0.662642 -3.69564 -0.0709854 -0.968695 1.04645 6.96746 -1.14186 2.62366 -0.625013 -5.21937 -5.35481 0.0400317 3.19931 -32.1755 -74.5559 -40.1377 -0.150331 62.0138 6.67364 0.64623 9.92344 -9.01778 9.29539 0.178603 -3.73468 0.420106 -43.2602 0.432618 -1.04057 23.7965 5.32833 -2.06716 9.81511 2.16577 -2.32972 0.319771 0.711635 1.49612 8.58203 16.1792 2.43215 -5.22547 -0.0361291 -1.31386e-009 8.75249e-006 -1.47851e-008 
-223.346 104.713 -5.49679 1.48476 0.385232 89.8473 0.064791 2.50754 -1.85982 -1.1214 9.35917 -14.5755 -1.7145 -5.62441 -0.123853 0.0462048 0.000530889 0.662642 -3.66691 -0.0758965 -0.987184 0.978571 7.01526 -1.14392 2.56299 -0.655076 -5.22856 -5.32729 0.0467151 3.1563 -31.7199 -74.4168 -39.4745 -0.39027 62.0842 6.79969 0.792744 9.90542 -8.7909 9.74882 0.16073 -3.83338 0.530731 -43.6121 0.835399 -1.21288 24.5656 5.35183 -2.06491 9.8141 2.30686 -2.37039 0.332416 0.676323 1.50484 8.49985 16.2232 2.4281 -5.18011 -0.0369999 -1.31386e-009 8.75249e-006 -1.47851e-008 
-223.364 104.713 -5.48829 1.45484 0.397803 89.8503 0.0460365 2.45567 -1.88055 -1.09913 9.37879 -14.5592 -1.76092 -5.6281 -0.123853 0.0462048 0.000530889 0.662642 -3.60037 -0.154324 -1.02909 0.88947 7.13545 -1.16416 2.68849 -0.666091 -4.96327 -5.62245 0.0478524 3.14712 -30.3911 -73.9778 -38.1372 -1.16095 61.7641 7.16944 1.16941 9.86055 -7.87105 10.3621 0.132501 -3.98331 0.822068 -44.2279 1.40509 -1.578 26.0139 5.41269 -2.00284 9.81433 2.74662 -2.37621 0.306983 0.663742 1.50339 8.45923 16.2222 2.40472 -5.1515 -0.0377573 -1.31386e-009 8.75249e-006 -1.47851e-008 
-223.382 104.714 -5.46996 1.42101 0.401155 89.8713 0.0593592 2.40568 -1.8673 -1.10115 9.38421 -14.5982 -1.77172 -5.61843 -0.123851 0.0462048 0.000530889 0.662642 -3.57622 -0.180375 -1.05962 0.926309 7.15373 -1.20302 2.84114 -0.536733 -4.64859 -6.43195 0.0291955 3.29652 -30.0769 -73.5482 -37.9819 -1.80119 61.5352 7.47673 1.57443 9.81707 -7.19937 11.0986 0.107378 -4.10328 1.01815 -44.5773 1.74394 -1.798 27.0175 5.85171 -2.05609 9.80826 3.00189 -2.36556 0.25484 0.659037 1.50337 8.45712 16.2046 2.39223 -5.13053 -0.0383959 -1.31386e-009 8.75249e-006 -1.47851e-008 
-223.402 104.714 -5.44593 1.37441 0.411107 89.8855 0.0680072 2.33952 -1.85112 -1.10532 9.39201 -14.6307 -1.76579 -5.61639 -0.123851 0.0462048 0.000530889 0.662642 -3.60655 -0.121292 -1.05136 1.0675 7.06104 -1.22798 2.80465 -0.452829 -4.5894 -7.65605 -0.0278705 3.68503 -32.207 -73.2188 -40.2052 -1.89979 61.4767 7.52221 1.90548 9.78192 -7.11907 12.0288 0.0739419 -4.25092 1.20087 -44.6542 1.98545 -1.8456 27.5205 6.59859 -2.25895 9.79443 2.93093 -2.36164 0.18549 0.647114 1.50759 8.46537 16.2067 2.38697 -5.10422 -0.0389094 -1.31386e-009 8.75249e-006 -1.47851e-008 
-223.428 104.714 -5.41775 1.30502 0.41771 89.8729 0.0770917 2.22297 -1.82665 -1.1015 9.43862 -14.6445 -1.79191 -5.62864 -0.123854 0.0462048 0.000530889 0.662642 -3.63308 -0.114555 -1.03479 1.18319 7.08379 -1.23891 2.56374 -0.68276 -4.74077 -9.04573 -0.12705 4.27421 -36.353 -72.7433 -44.176 -1.68221 61.5741 7.41955 2.15782 9.75441 -7.15891 13.141 0.0114375 -4.52291 1.94612 -44.7891 2.68743 -1.92127 28.1241 7.3033 -2.43121 9.78319 2.83281 -2.34392 0.0754923 0.650336 1.49706 8.50224 16.2153 2.36615 -5.09262 -0.039294 -1.31386e-009 8.75249e-006 -1.47851e-008 
-223.463 104.713 -5.38501 1.21783 0.40269 89.8494 0.124044 2.06745 -1.75721 -1.11513 9.51012 -14.6941 -1.838 -5.63487 -0.123855 0.0462048 0.000530889 0.662642 -3.62795 -0.244692 -1.04335 1.24327 7.30407 -1.26232 2.33153 -1.08817 -4.837 -10.4766 -0.248831 4.90526 -41.265 -71.9915 -48.6009 -1.45348 62.3745 7.3598 2.32648 9.73734 -7.05332 14.2394 -0.0743596 -4.88075 3.62908 -44.9966 3.98292 -2.07542 29.0424 7.74344 -2.38741 9.78432 3.00881 -2.29048 -0.0809493 0.68599 1.46753 8.58035 16.1971 2.34149 -5.10621 -0.0395451 -1.31386e-009 8.75249e-006 -1.47851e-008 
-223.492 104.713 -5.3528 1.15367 0.390268 89.8668 0.179753 1.96719 -1.68592 -1.14161 9.53622 -14.7836 -1.85486 -5.62009 -0.123852 0.0462048 0.000530889 0.662642 -3.61271 -0.413755 -1.07457 1.28556 7.53815 -1.30352 2.31804 -1.20018 -4.77149 -11.9696 -0.374616 5.46483 -46.5075 -71.0338 -53.059 -1.17853 64.4012 7.36582 2.44374 9.72497 -7.03464 15.161 -0.150759 -5.17566 6.03913 -45.0057 5.42973 -2.17714 30.1746 7.90179 -2.18382 9.79472 3.43183 -2.24293 -0.196552 0.7162 1.44716 8.62808 16.143 2.33187 -5.10586 -0.0396549 -1.31386e-009 8.75249e-006 -1.47851e-008 
-223.494 104.713 -5.32522 1.16595 0.427489 89.9601 0.161628 2.00229 -1.71761 -1.1317 9.51029 -14.8493 -1.84408 -5.61922 -0.123852 0.0462048 0.000530889 0.662642 -3.61764 -0.508865 -1.13805 1.27898 7.67403 -1.36307 2.5209 -0.828151 -4.61483 -13.4588 -0.504672 5.97104 -51.598 -69.8731 -56.9627 -0.897873 67.2232 7.441 2.6194 9.70411 -7.17826 15.9934 -0.196646 -5.32098 8.80993 -44.7128 6.74932 -2.13286 31.6509 7.81658 -2.03702 9.80258 3.78473 -2.2627 -0.170557 0.694239 1.45361 8.5844 16.0604 2.32136 -5.06454 -0.0396167 -1.31386e-009 8.75249e-006 -1.47851e-008 
-223.475 104.712 -5.29302 1.25889 0.510058 90.1101 0.0657629 2.12408 -1.85642 -1.07312 9.53236 -14.8655 -1.85865 -5.68296 -0.123865 0.0462048 0.000530889 0.662642 -3.71452 -0.536169 -1.26402 1.24 7.81827 -1.47515 2.76039 -0.311385 -4.411 -14.7585 -0.634983 6.43865 -55.1127 -68.5844 -58.7133 -1.11019 69.8788 7.80361 2.86136 9.6768 -7.2468 16.9361 -0.221322 -5.35851 11.771 -44.192 8.11916 -1.91003 33.7568 7.59027 -2.03718 9.80258 3.79394 -2.33629 -0.0300418 0.640399 1.46805 8.51069 15.9676 2.30636 -5.02066 -0.0394276 -1.31386e-009 8.75249e-006 -1.47851e-008 
-223.456 104.711 -5.24192 1.37602 0.585612 90.2157 -0.0103499 2.2261 -1.97968 -1.01682 9.64104 -14.8612 -1.92264 -5.78961 -0.123888 0.0462048 0.000530889 0.662642 -3.9991 -0.54466 -1.43522 1.35713 8.04988 -1.67019 2.85272 -0.0690155 -4.16519 -15.8385 -0.753807 6.8353 -56.4806 -67.4287 -57.7348 -2.12465 71.9038 8.62289 3.03032 9.65894 -7.21279 17.9817 -0.234778 -5.34057 14.7327 -43.4506 9.54098 -1.5131 36.4432 7.48716 -2.07407 9.80161 3.57875 -2.38561 0.116764 0.617279 1.47099 8.47993 15.9035 2.31425 -5.00829 -0.0390843 -1.31386e-009 8.75249e-006 -1.47851e-008 
